# xmcd
# 
# Track frame offsets:
#     150
#     28239
#     46589
#     63579
#     84127
#     101668
#     130864
#     147040
#     171113
#     197921
#     217612
#     230313
# 
# Disc length: 3343
# 
# Revision: 0
# Processed by: cddbd v1.5.2PL0 Copyright (c) Steve Scherf et al.
# Submitted via: BonkEnc v1.0
# 
DISCID=970d0d0c
DTITLE=Mark Knopfler - The Ragpicker's Dream
DYEAR=2002
DGENRE=Rock - Pop
TTITLE0=Why Aye Man
TTITLE1=Devil Baby
TTITLE2=Hill Farmer's Blues
TTITLE3=A Place Where We Used To Live
TTITLE4=Quality Shoe
TTITLE5=Fare Thee Well Northumberland
TTITLE6=Marbletown
TTITLE7=You Don't Know You're Born
TTITLE8=Coyote
TTITLE9=The Ragpicker's Dream
TTITLE10=Daddy's Gone To Knoxville
TTITLE11=Old Pigweed
EXTD=
EXTT0=
EXTT1=
EXTT2=
EXTT3=
EXTT4=
EXTT5=
EXTT6=
EXTT7=
EXTT8=
EXTT9=
EXTT10=
EXTT11=
PLAYORDER=
